# xmcd
#
# Track frame offsets: 
#        150
#        12132
#        28665
#        41207
#        56407
#        70610
#        85272
#        96900
#        111460
#        122105
#        135350
#        147705
#
# Disc length: 2190 seconds
#
# Revision: 0
# Processed by: cddbd v1.4PL0 Copyright (c) Steve Scherf et al.
# Submitted via: ExactAudioCopy v0.95a3
#
DISCID=a8088c0c
DTITLE=Floyd Cramer - Floyd Cramer Plays His All-Time Favorites (3 of 
DTITLE=3)
DYEAR=1998
DGENRE=Country
TTITLE0=Making Believe
TTITLE1=You've Lost That Lovin' Feelin'
TTITLE2=Danny Boy
TTITLE3=We've Only Just Begun
TTITLE4=The Long And Winding Road
TTITLE5=My Way
TTITLE6=Send Me The Pillow You Dream On
TTITLE7=It Had To Be You
TTITLE8=I'm So Lonesome I Could Cry
TTITLE9=Softly, As I Leave You
TTITLE10=Born To Lose
TTITLE11=In My Life
EXTD=
EXTT0=
EXTT1=
EXTT2=
EXTT3=
EXTT4=
EXTT5=
EXTT6=
EXTT7=
EXTT8=
EXTT9=
EXTT10=
EXTT11=
PLAYORDER=
